<?xml version="1.0" standalone="no"?>
<!DOCTYPE svg PUBLIC "-//W3C//DTD SVG 20010904//EN"
 "http://www.w3.org/TR/2001/REC-SVG-20010904/DTD/svg10.dtd">
<svg version="1.0" xmlns="http://www.w3.org/2000/svg"
 width="320.000000pt" height="320.000000pt" viewBox="0 0 320.000000 320.000000"
 preserveAspectRatio="xMidYMid meet">

<g transform="translate(0.000000,320.000000) scale(0.100000,-0.100000)"
fill="#000000" stroke="none">
<path d="M1430 3185 c-363 -66 -662 -297 -804 -623 -84 -193 -96 -300 -96
-875 l0 -417 -210 -420 -210 -420 483 0 483 0 17 -54 c27 -84 65 -145 137
-217 208 -210 532 -210 740 0 72 72 110 133 137 217 l17 54 483 0 483 0 -210
420 -210 420 0 417 c0 450 -8 594 -40 715 -90 345 -352 626 -687 738 -173 57
-358 74 -513 45z m295 -209 c300 -47 548 -241 663 -517 59 -142 62 -180 62
-699 l0 -470 160 -320 c88 -176 160 -322 160 -325 0 -3 -526 -5 -1170 -5 -643
0 -1170 2 -1170 5 0 3 72 149 160 325 l160 320 0 470 c0 519 3 557 62 699 113
272 362 468 653 516 107 17 153 17 260 1z m169 -2555 c9 -14 -48 -94 -94 -134
-110 -94 -290 -94 -400 0 -46 40 -103 120 -94 134 3 5 135 9 294 9 159 0 291
-4 294 -9z"/>
</g>
</svg>
